<mxfile host="Electron" modified="2024-05-09T05:13:41.500Z" agent="Mozilla/5.0 (Windows NT 10.0; Win64; x64) AppleWebKit/537.36 (KHTML, like Gecko) draw.io/24.2.5 Chrome/120.0.6099.109 Electron/28.1.0 Safari/537.36" etag="WD9eNlLY736IfJfAeSMu" version="24.2.5" type="device">
  <diagram name="Page-1" id="K14sHKQA-Za7DbS5MCDG">
    <mxGraphModel dx="1100" dy="665" grid="1" gridSize="10" guides="1" tooltips="1" connect="1" arrows="1" fold="1" page="1" pageScale="1" pageWidth="850" pageHeight="1100" math="0" shadow="0">
      <root>
        <mxCell id="0" />
        <mxCell id="1" parent="0" />
        <mxCell id="xojGy3cI7THI7a6LZx4G-30" style="edgeStyle=orthogonalEdgeStyle;rounded=0;orthogonalLoop=1;jettySize=auto;html=1;exitX=1;exitY=0.5;exitDx=0;exitDy=0;entryX=0;entryY=0.5;entryDx=0;entryDy=0;endArrow=none;endFill=0;" edge="1" parent="1" source="xojGy3cI7THI7a6LZx4G-1" target="xojGy3cI7THI7a6LZx4G-29">
          <mxGeometry relative="1" as="geometry" />
        </mxCell>
        <mxCell id="xojGy3cI7THI7a6LZx4G-32" value="&lt;font style=&quot;font-size: 20px;&quot;&gt;1&lt;/font&gt;" style="edgeLabel;html=1;align=center;verticalAlign=middle;resizable=0;points=[];" vertex="1" connectable="0" parent="xojGy3cI7THI7a6LZx4G-30">
          <mxGeometry x="-0.7455" y="1" relative="1" as="geometry">
            <mxPoint as="offset" />
          </mxGeometry>
        </mxCell>
        <mxCell id="xojGy3cI7THI7a6LZx4G-1" value="Employee" style="rounded=0;whiteSpace=wrap;html=1;fillColor=#ffe6cc;strokeColor=#d79b00;" vertex="1" parent="1">
          <mxGeometry x="150" y="190" width="80" height="40" as="geometry" />
        </mxCell>
        <mxCell id="xojGy3cI7THI7a6LZx4G-2" value="&lt;u&gt;ID&lt;/u&gt;" style="ellipse;whiteSpace=wrap;html=1;fillColor=#dae8fc;strokeColor=#6c8ebf;" vertex="1" parent="1">
          <mxGeometry x="70" y="150" width="60" height="30" as="geometry" />
        </mxCell>
        <mxCell id="xojGy3cI7THI7a6LZx4G-3" value="Name" style="ellipse;whiteSpace=wrap;html=1;fillColor=#dae8fc;strokeColor=#6c8ebf;" vertex="1" parent="1">
          <mxGeometry x="160" y="100" width="60" height="35" as="geometry" />
        </mxCell>
        <mxCell id="xojGy3cI7THI7a6LZx4G-4" value="Email" style="ellipse;whiteSpace=wrap;html=1;fillColor=#dae8fc;strokeColor=#6c8ebf;" vertex="1" parent="1">
          <mxGeometry x="40" y="240" width="60" height="30" as="geometry" />
        </mxCell>
        <mxCell id="xojGy3cI7THI7a6LZx4G-5" value="" style="endArrow=none;html=1;rounded=0;entryX=0.5;entryY=1;entryDx=0;entryDy=0;exitX=0.5;exitY=0;exitDx=0;exitDy=0;" edge="1" parent="1" source="xojGy3cI7THI7a6LZx4G-1" target="xojGy3cI7THI7a6LZx4G-3">
          <mxGeometry width="50" height="50" relative="1" as="geometry">
            <mxPoint x="330" y="220" as="sourcePoint" />
            <mxPoint x="380" y="170" as="targetPoint" />
          </mxGeometry>
        </mxCell>
        <mxCell id="xojGy3cI7THI7a6LZx4G-6" value="" style="endArrow=none;html=1;rounded=0;entryX=1;entryY=1;entryDx=0;entryDy=0;exitX=0;exitY=0;exitDx=0;exitDy=0;" edge="1" parent="1" source="xojGy3cI7THI7a6LZx4G-1" target="xojGy3cI7THI7a6LZx4G-2">
          <mxGeometry width="50" height="50" relative="1" as="geometry">
            <mxPoint x="200" y="200" as="sourcePoint" />
            <mxPoint x="200" y="145" as="targetPoint" />
          </mxGeometry>
        </mxCell>
        <mxCell id="xojGy3cI7THI7a6LZx4G-7" value="" style="endArrow=none;html=1;rounded=0;exitX=0;exitY=1;exitDx=0;exitDy=0;" edge="1" parent="1" source="xojGy3cI7THI7a6LZx4G-1" target="xojGy3cI7THI7a6LZx4G-4">
          <mxGeometry width="50" height="50" relative="1" as="geometry">
            <mxPoint x="160" y="200" as="sourcePoint" />
            <mxPoint x="140" y="175" as="targetPoint" />
          </mxGeometry>
        </mxCell>
        <mxCell id="xojGy3cI7THI7a6LZx4G-10" value="Salary" style="ellipse;whiteSpace=wrap;html=1;fillColor=#dae8fc;strokeColor=#6c8ebf;" vertex="1" parent="1">
          <mxGeometry x="270" y="120" width="70" height="40" as="geometry" />
        </mxCell>
        <mxCell id="xojGy3cI7THI7a6LZx4G-11" value="" style="endArrow=none;html=1;rounded=0;entryX=0;entryY=1;entryDx=0;entryDy=0;exitX=0.75;exitY=0;exitDx=0;exitDy=0;" edge="1" parent="1" source="xojGy3cI7THI7a6LZx4G-1" target="xojGy3cI7THI7a6LZx4G-10">
          <mxGeometry width="50" height="50" relative="1" as="geometry">
            <mxPoint x="230" y="180" as="sourcePoint" />
            <mxPoint x="200" y="145" as="targetPoint" />
          </mxGeometry>
        </mxCell>
        <mxCell id="xojGy3cI7THI7a6LZx4G-12" value="AccessLevel" style="ellipse;whiteSpace=wrap;html=1;fillColor=#dae8fc;strokeColor=#6c8ebf;" vertex="1" parent="1">
          <mxGeometry x="250" y="270" width="90" height="50" as="geometry" />
        </mxCell>
        <mxCell id="xojGy3cI7THI7a6LZx4G-13" value="" style="endArrow=none;html=1;rounded=0;exitX=0.75;exitY=1;exitDx=0;exitDy=0;entryX=0.5;entryY=0;entryDx=0;entryDy=0;" edge="1" parent="1" source="xojGy3cI7THI7a6LZx4G-1" target="xojGy3cI7THI7a6LZx4G-12">
          <mxGeometry width="50" height="50" relative="1" as="geometry">
            <mxPoint x="200" y="240" as="sourcePoint" />
            <mxPoint x="136" y="312" as="targetPoint" />
          </mxGeometry>
        </mxCell>
        <mxCell id="xojGy3cI7THI7a6LZx4G-31" style="edgeStyle=orthogonalEdgeStyle;rounded=0;orthogonalLoop=1;jettySize=auto;html=1;exitX=0;exitY=0.5;exitDx=0;exitDy=0;entryX=1;entryY=0.5;entryDx=0;entryDy=0;endArrow=none;endFill=0;" edge="1" parent="1" source="xojGy3cI7THI7a6LZx4G-14" target="xojGy3cI7THI7a6LZx4G-29">
          <mxGeometry relative="1" as="geometry" />
        </mxCell>
        <mxCell id="xojGy3cI7THI7a6LZx4G-33" value="&lt;font style=&quot;font-size: 20px;&quot;&gt;M&lt;/font&gt;" style="edgeLabel;html=1;align=center;verticalAlign=middle;resizable=0;points=[];" vertex="1" connectable="0" parent="xojGy3cI7THI7a6LZx4G-31">
          <mxGeometry x="-0.56" y="1" relative="1" as="geometry">
            <mxPoint as="offset" />
          </mxGeometry>
        </mxCell>
        <mxCell id="xojGy3cI7THI7a6LZx4G-14" value="ExpenseRequest" style="rounded=0;whiteSpace=wrap;html=1;fillColor=#ffe6cc;strokeColor=#d79b00;" vertex="1" parent="1">
          <mxGeometry x="570" y="190.5" width="120" height="40" as="geometry" />
        </mxCell>
        <mxCell id="xojGy3cI7THI7a6LZx4G-15" value="&lt;u&gt;ID&lt;/u&gt;" style="ellipse;whiteSpace=wrap;html=1;fillColor=#dae8fc;strokeColor=#6c8ebf;" vertex="1" parent="1">
          <mxGeometry x="510" y="115.5" width="70" height="35" as="geometry" />
        </mxCell>
        <mxCell id="xojGy3cI7THI7a6LZx4G-16" value="Amount" style="ellipse;whiteSpace=wrap;html=1;fillColor=#dae8fc;strokeColor=#6c8ebf;" vertex="1" parent="1">
          <mxGeometry x="610" y="78" width="70" height="40" as="geometry" />
        </mxCell>
        <mxCell id="xojGy3cI7THI7a6LZx4G-17" value="Type" style="ellipse;whiteSpace=wrap;html=1;fillColor=#dae8fc;strokeColor=#6c8ebf;" vertex="1" parent="1">
          <mxGeometry x="710" y="125.5" width="70" height="40" as="geometry" />
        </mxCell>
        <mxCell id="xojGy3cI7THI7a6LZx4G-18" value="DateTime" style="ellipse;whiteSpace=wrap;html=1;fillColor=#dae8fc;strokeColor=#6c8ebf;" vertex="1" parent="1">
          <mxGeometry x="740" y="220.5" width="80" height="40" as="geometry" />
        </mxCell>
        <mxCell id="xojGy3cI7THI7a6LZx4G-19" value="Description" style="ellipse;whiteSpace=wrap;html=1;fillColor=#dae8fc;strokeColor=#6c8ebf;" vertex="1" parent="1">
          <mxGeometry x="705" y="310.5" width="80" height="50" as="geometry" />
        </mxCell>
        <mxCell id="xojGy3cI7THI7a6LZx4G-20" value="Status" style="ellipse;whiteSpace=wrap;html=1;fillColor=#dae8fc;strokeColor=#6c8ebf;" vertex="1" parent="1">
          <mxGeometry x="610" y="320.5" width="70" height="50" as="geometry" />
        </mxCell>
        <mxCell id="xojGy3cI7THI7a6LZx4G-21" value="RejectionReason" style="ellipse;whiteSpace=wrap;html=1;fillColor=#dae8fc;strokeColor=#6c8ebf;" vertex="1" parent="1">
          <mxGeometry x="470" y="310.5" width="120" height="50" as="geometry" />
        </mxCell>
        <mxCell id="xojGy3cI7THI7a6LZx4G-22" value="" style="endArrow=none;html=1;rounded=0;entryX=1;entryY=1;entryDx=0;entryDy=0;exitX=0.25;exitY=0;exitDx=0;exitDy=0;" edge="1" parent="1" source="xojGy3cI7THI7a6LZx4G-14" target="xojGy3cI7THI7a6LZx4G-15">
          <mxGeometry width="50" height="50" relative="1" as="geometry">
            <mxPoint x="240" y="180.5" as="sourcePoint" />
            <mxPoint x="310" y="144.5" as="targetPoint" />
          </mxGeometry>
        </mxCell>
        <mxCell id="xojGy3cI7THI7a6LZx4G-23" value="" style="endArrow=none;html=1;rounded=0;entryX=0.5;entryY=1;entryDx=0;entryDy=0;exitX=0.5;exitY=0;exitDx=0;exitDy=0;" edge="1" parent="1" source="xojGy3cI7THI7a6LZx4G-14" target="xojGy3cI7THI7a6LZx4G-16">
          <mxGeometry width="50" height="50" relative="1" as="geometry">
            <mxPoint x="610" y="200.5" as="sourcePoint" />
            <mxPoint x="580" y="155.5" as="targetPoint" />
          </mxGeometry>
        </mxCell>
        <mxCell id="xojGy3cI7THI7a6LZx4G-24" value="" style="endArrow=none;html=1;rounded=0;entryX=0;entryY=1;entryDx=0;entryDy=0;exitX=0.75;exitY=0;exitDx=0;exitDy=0;" edge="1" parent="1" source="xojGy3cI7THI7a6LZx4G-14" target="xojGy3cI7THI7a6LZx4G-17">
          <mxGeometry width="50" height="50" relative="1" as="geometry">
            <mxPoint x="640" y="200.5" as="sourcePoint" />
            <mxPoint x="655" y="128.5" as="targetPoint" />
          </mxGeometry>
        </mxCell>
        <mxCell id="xojGy3cI7THI7a6LZx4G-25" value="" style="endArrow=none;html=1;rounded=0;entryX=0;entryY=0.5;entryDx=0;entryDy=0;" edge="1" parent="1" target="xojGy3cI7THI7a6LZx4G-18">
          <mxGeometry width="50" height="50" relative="1" as="geometry">
            <mxPoint x="690" y="210.5" as="sourcePoint" />
            <mxPoint x="730" y="169.5" as="targetPoint" />
          </mxGeometry>
        </mxCell>
        <mxCell id="xojGy3cI7THI7a6LZx4G-26" value="" style="endArrow=none;html=1;rounded=0;entryX=0.5;entryY=0;entryDx=0;entryDy=0;exitX=0.75;exitY=1;exitDx=0;exitDy=0;" edge="1" parent="1" source="xojGy3cI7THI7a6LZx4G-14" target="xojGy3cI7THI7a6LZx4G-19">
          <mxGeometry width="50" height="50" relative="1" as="geometry">
            <mxPoint x="700" y="220.5" as="sourcePoint" />
            <mxPoint x="750" y="250.5" as="targetPoint" />
          </mxGeometry>
        </mxCell>
        <mxCell id="xojGy3cI7THI7a6LZx4G-27" value="" style="endArrow=none;html=1;rounded=0;entryX=0.5;entryY=0;entryDx=0;entryDy=0;exitX=0.5;exitY=1;exitDx=0;exitDy=0;" edge="1" parent="1" source="xojGy3cI7THI7a6LZx4G-14" target="xojGy3cI7THI7a6LZx4G-20">
          <mxGeometry width="50" height="50" relative="1" as="geometry">
            <mxPoint x="670" y="240.5" as="sourcePoint" />
            <mxPoint x="755" y="320.5" as="targetPoint" />
          </mxGeometry>
        </mxCell>
        <mxCell id="xojGy3cI7THI7a6LZx4G-28" value="" style="endArrow=none;html=1;rounded=0;entryX=0.5;entryY=0;entryDx=0;entryDy=0;exitX=0.25;exitY=1;exitDx=0;exitDy=0;" edge="1" parent="1" source="xojGy3cI7THI7a6LZx4G-14" target="xojGy3cI7THI7a6LZx4G-21">
          <mxGeometry width="50" height="50" relative="1" as="geometry">
            <mxPoint x="640" y="240.5" as="sourcePoint" />
            <mxPoint x="655" y="330.5" as="targetPoint" />
          </mxGeometry>
        </mxCell>
        <mxCell id="xojGy3cI7THI7a6LZx4G-29" value="Raises" style="rhombus;whiteSpace=wrap;html=1;fillColor=#e1d5e7;strokeColor=#9673a6;" vertex="1" parent="1">
          <mxGeometry x="340" y="182.5" width="80" height="55" as="geometry" />
        </mxCell>
        <mxCell id="xojGy3cI7THI7a6LZx4G-35" value="Deparment" style="rounded=0;whiteSpace=wrap;html=1;fillColor=#ffe6cc;strokeColor=#d79b00;" vertex="1" parent="1">
          <mxGeometry x="150" y="530" width="80" height="40" as="geometry" />
        </mxCell>
        <mxCell id="xojGy3cI7THI7a6LZx4G-36" value="&lt;u&gt;ID&lt;/u&gt;" style="ellipse;whiteSpace=wrap;html=1;fillColor=#dae8fc;strokeColor=#6c8ebf;" vertex="1" parent="1">
          <mxGeometry x="70" y="490" width="60" height="30" as="geometry" />
        </mxCell>
        <mxCell id="xojGy3cI7THI7a6LZx4G-37" value="Name" style="ellipse;whiteSpace=wrap;html=1;fillColor=#dae8fc;strokeColor=#6c8ebf;" vertex="1" parent="1">
          <mxGeometry x="270" y="470" width="60" height="35" as="geometry" />
        </mxCell>
        <mxCell id="xojGy3cI7THI7a6LZx4G-38" value="" style="endArrow=none;html=1;rounded=0;entryX=0;entryY=0.5;entryDx=0;entryDy=0;exitX=0.75;exitY=0;exitDx=0;exitDy=0;" edge="1" source="xojGy3cI7THI7a6LZx4G-35" target="xojGy3cI7THI7a6LZx4G-37" parent="1">
          <mxGeometry width="50" height="50" relative="1" as="geometry">
            <mxPoint x="260" y="685" as="sourcePoint" />
            <mxPoint x="250" y="630" as="targetPoint" />
          </mxGeometry>
        </mxCell>
        <mxCell id="xojGy3cI7THI7a6LZx4G-39" value="" style="endArrow=none;html=1;rounded=0;entryX=1;entryY=1;entryDx=0;entryDy=0;exitX=0;exitY=0;exitDx=0;exitDy=0;" edge="1" source="xojGy3cI7THI7a6LZx4G-35" target="xojGy3cI7THI7a6LZx4G-36" parent="1">
          <mxGeometry width="50" height="50" relative="1" as="geometry">
            <mxPoint x="200" y="540" as="sourcePoint" />
            <mxPoint x="200" y="485" as="targetPoint" />
          </mxGeometry>
        </mxCell>
        <mxCell id="xojGy3cI7THI7a6LZx4G-41" value="HeadID" style="ellipse;whiteSpace=wrap;html=1;fillColor=#dae8fc;strokeColor=#6c8ebf;" vertex="1" parent="1">
          <mxGeometry x="90" y="600" width="60" height="35" as="geometry" />
        </mxCell>
        <mxCell id="xojGy3cI7THI7a6LZx4G-42" value="" style="endArrow=none;html=1;rounded=0;entryX=1;entryY=0;entryDx=0;entryDy=0;exitX=0.25;exitY=1;exitDx=0;exitDy=0;" edge="1" parent="1" source="xojGy3cI7THI7a6LZx4G-35" target="xojGy3cI7THI7a6LZx4G-41">
          <mxGeometry width="50" height="50" relative="1" as="geometry">
            <mxPoint x="200" y="540" as="sourcePoint" />
            <mxPoint x="190" y="485" as="targetPoint" />
          </mxGeometry>
        </mxCell>
        <mxCell id="xojGy3cI7THI7a6LZx4G-44" style="edgeStyle=orthogonalEdgeStyle;rounded=0;orthogonalLoop=1;jettySize=auto;html=1;exitX=0.5;exitY=0;exitDx=0;exitDy=0;entryX=0.5;entryY=1;entryDx=0;entryDy=0;endArrow=none;endFill=0;" edge="1" parent="1" source="xojGy3cI7THI7a6LZx4G-43" target="xojGy3cI7THI7a6LZx4G-1">
          <mxGeometry relative="1" as="geometry" />
        </mxCell>
        <mxCell id="xojGy3cI7THI7a6LZx4G-46" value="&lt;font style=&quot;font-size: 20px;&quot;&gt;M&lt;/font&gt;" style="edgeLabel;html=1;align=center;verticalAlign=middle;resizable=0;points=[];" vertex="1" connectable="0" parent="xojGy3cI7THI7a6LZx4G-44">
          <mxGeometry x="0.6857" relative="1" as="geometry">
            <mxPoint as="offset" />
          </mxGeometry>
        </mxCell>
        <mxCell id="xojGy3cI7THI7a6LZx4G-45" style="edgeStyle=orthogonalEdgeStyle;rounded=0;orthogonalLoop=1;jettySize=auto;html=1;exitX=0.5;exitY=1;exitDx=0;exitDy=0;entryX=0.5;entryY=0;entryDx=0;entryDy=0;endArrow=none;endFill=0;" edge="1" parent="1" source="xojGy3cI7THI7a6LZx4G-43" target="xojGy3cI7THI7a6LZx4G-35">
          <mxGeometry relative="1" as="geometry" />
        </mxCell>
        <mxCell id="xojGy3cI7THI7a6LZx4G-47" value="&lt;font style=&quot;font-size: 20px;&quot;&gt;1&lt;/font&gt;" style="edgeLabel;html=1;align=center;verticalAlign=middle;resizable=0;points=[];" vertex="1" connectable="0" parent="xojGy3cI7THI7a6LZx4G-45">
          <mxGeometry x="0.4526" relative="1" as="geometry">
            <mxPoint as="offset" />
          </mxGeometry>
        </mxCell>
        <mxCell id="xojGy3cI7THI7a6LZx4G-43" value="Has" style="rhombus;whiteSpace=wrap;html=1;fillColor=#e1d5e7;strokeColor=#9673a6;" vertex="1" parent="1">
          <mxGeometry x="150" y="380" width="80" height="55" as="geometry" />
        </mxCell>
      </root>
    </mxGraphModel>
  </diagram>
</mxfile>
